# xmcd CD database file
#
# Track frame offsets:
#	150
#	19125
#	36063
#	56153
#
# Disc length: 917 seconds
#
# Revision: 1
# Processed by: cddbd v1.5.2PL0 Copyright (c) Steve Scherf et al.
# Submitted via: CDex 1.70beta2
#
DISCID=2d039304
DTITLE=伊藤真澄 - まあるい空
DYEAR=1999
DGENRE=Anime
TTITLE0=まあるい空
TTITLE1=星のひと～天野原ララバイ～
TTITLE2=まあるい空(カラオケ)
TTITLE3=星のひと～天野原ララバイ～(カラオケ)
EXTD=YEAR: 1999
EXTT0=
EXTT1=
EXTT2=
EXTT3=
PLAYORDER=
